# Blender 4.5.0
# www.blender.org
mtllib Blocking_Torbogen_duenn.mtl
o Cube.003
v 1.423240 3.397789 6.151365
v 1.426067 -3.421316 6.148525
v 1.422263 3.397789 9.003544
v 1.425947 -3.421316 9.000540
v -1.423240 3.397789 6.151365
v -1.426067 -3.421316 6.148525
v -1.422263 3.397789 9.003544
v -1.425947 -3.421316 9.000540
v 1.111531 2.894959 6.463472
v 0.893220 2.368603 6.682113
v 0.744989 1.842247 6.830603
v 0.649831 1.315891 6.925949
v 0.597298 0.789534 6.978599
v 0.581711 0.263178 6.994227
v 0.581711 -0.263178 6.994227
v 0.597298 -0.789534 6.978599
v 0.649831 -1.315891 6.925949
v 0.744989 -1.842247 6.830603
v 0.893221 -2.368603 6.682113
v 1.111531 -2.894959 6.463472
v -1.111458 -2.894959 8.686460
v -0.893180 -2.368603 8.468513
v -0.744969 -1.842247 8.320560
v -0.649822 -1.315891 8.225602
v -0.597296 -0.789535 8.173193
v -0.581711 -0.263178 8.159520
v -0.581711 0.263178 8.178402
v -0.596632 0.760592 8.235042
v -0.631905 1.188705 8.339806
v -0.678722 1.538338 8.487134
v -0.733869 1.793752 8.644957
v -1.066480 2.610620 8.732727
v 1.066480 2.610620 8.732727
v 0.733869 1.793752 8.644957
v 0.678722 1.538338 8.487134
v 0.631905 1.188705 8.339806
v 0.596632 0.760592 8.235042
v 0.581711 0.263178 8.178402
v 0.581711 -0.263178 8.159520
v 0.597296 -0.789534 8.173193
v 0.649822 -1.315891 8.225602
v 0.744969 -1.842247 8.320560
v 0.893180 -2.368603 8.468513
v 1.111458 -2.894959 8.686460
v -1.111531 2.894959 6.463472
v -0.893220 2.368603 6.682113
v -0.744989 1.842247 6.830603
v -0.649831 1.315891 6.925949
v -0.597298 0.789534 6.978599
v -0.581711 0.263178 6.994227
v -0.581711 -0.263178 6.994227
v -0.597298 -0.789534 6.978599
v -0.649831 -1.315891 6.925949
v -0.744989 -1.842247 6.830603
v -0.893221 -2.368603 6.682113
v -1.111531 -2.894959 6.463472
v 1.422263 3.397789 11.466576
v 1.425947 -3.421316 11.469580
v 1.423240 3.397789 14.318754
v 1.426067 -3.421316 14.321594
v -1.422263 3.397789 11.466576
v -1.425947 -3.421316 11.469580
v -1.423241 3.397789 14.318754
v -1.426067 -3.421316 14.321594
v 1.066480 2.610620 11.737392
v 0.733869 1.793752 11.825163
v 0.678722 1.538338 11.982985
v 0.631905 1.188705 12.130314
v 0.596632 0.760592 12.235077
v 0.581711 0.263178 12.291718
v 0.581711 -0.263178 12.310598
v 0.597296 -0.789534 12.296926
v 0.649822 -1.315891 12.244516
v 0.744969 -1.842247 12.149559
v 0.893180 -2.368603 12.001606
v 1.111458 -2.894959 11.783658
v -1.111531 -2.894959 14.006646
v -0.893220 -2.368603 13.788005
v -0.744989 -1.842247 13.639516
v -0.649831 -1.315891 13.544170
v -0.597298 -0.789535 13.491520
v -0.581711 -0.263178 13.475892
v -0.581711 0.263178 13.475892
v -0.597298 0.789534 13.491520
v -0.649831 1.315891 13.544170
v -0.744989 1.842247 13.639516
v -0.893220 2.368603 13.788005
v -1.111531 2.894959 14.006646
v 1.111531 2.894959 14.006646
v 0.893220 2.368603 13.788005
v 0.744989 1.842247 13.639516
v 0.649831 1.315891 13.544170
v 0.597298 0.789534 13.491520
v 0.581711 0.263178 13.475892
v 0.581711 -0.263178 13.475892
v 0.597298 -0.789534 13.491520
v 0.649831 -1.315891 13.544170
v 0.744989 -1.842247 13.639516
v 0.893220 -2.368603 13.788005
v 1.111531 -2.894959 14.006646
v -1.066480 2.610620 11.737392
v -0.733869 1.793752 11.825163
v -0.678722 1.538338 11.982985
v -0.631905 1.188705 12.130314
v -0.596632 0.760592 12.235077
v -0.581711 0.263178 12.291718
v -0.581711 -0.263178 12.310598
v -0.597296 -0.789534 12.296926
v -0.649822 -1.315891 12.244516
v -0.744969 -1.842247 12.149559
v -0.893180 -2.368603 12.001606
v -1.111458 -2.894959 11.783658
v 1.443690 3.397789 9.372080
v 1.473101 3.397789 9.767832
v 1.509366 3.397789 10.190703
v 1.509366 3.397789 10.279415
v 1.473101 3.397789 10.702288
v 1.443690 3.397789 11.098040
v -1.443690 3.397789 9.372080
v -1.473101 3.397789 9.767832
v -1.509366 3.397789 10.190703
v -1.509366 3.397789 10.279415
v -1.473101 3.397789 10.702288
v -1.443690 3.397789 11.098040
v -1.111971 2.736450 9.113855
v -1.154011 2.848032 9.550878
v -1.195714 2.894463 10.042263
v -1.195714 2.894463 10.427856
v -1.154011 2.848032 10.919242
v -1.111971 2.736450 11.356263
v 1.111971 2.736450 9.113855
v 1.154011 2.848032 9.550878
v 1.195714 2.894463 10.042263
v 1.195714 2.894463 10.427856
v 1.154011 2.848032 10.919242
v 1.111971 2.736450 11.356263
v -0.844315 2.090881 8.962895
v -0.925900 2.281107 9.395542
v -0.971928 2.364430 9.920645
v -0.971928 2.364430 10.549475
v -0.925900 2.281107 11.074577
v -0.844315 2.090881 11.507223
v 0.844315 2.090881 8.962895
v 0.925900 2.281107 9.395542
v 0.971928 2.364430 9.920645
v 0.971928 2.364430 10.549475
v 0.925900 2.281107 11.074577
v 0.844315 2.090881 11.507223
vn -0.0000 1.0000 -0.0000
vn -0.8878 -0.4599 -0.0176
vn -0.0000 -1.0000 -0.0000
vn 0.8878 -0.4599 -0.0176
vn -0.0000 -0.5274 -0.8496
vn -0.0000 0.5135 -0.8581
vn -0.0000 0.3836 -0.9235
vn -0.0000 0.2715 -0.9624
vn -0.0000 0.1782 -0.9840
vn -0.0000 0.0995 -0.9950
vn -0.0000 0.0297 -0.9996
vn -0.0000 -0.0000 -1.0000
vn -0.0000 -0.0297 -0.9996
vn -0.0000 -0.0995 -0.9950
vn -0.0000 -0.1782 -0.9840
vn -0.0000 -0.2715 -0.9624
vn -0.0000 -0.3836 -0.9235
vn 0.8584 0.5129 -0.0000
vn 0.9237 0.3831 -0.0000
vn 0.9626 0.2711 -0.0000
vn 0.9840 0.1779 -0.0000
vn 0.9951 0.0993 -0.0000
vn 0.9996 0.0296 -0.0000
vn 1.0000 -0.0000 -0.0000
vn 0.9996 -0.0298 -0.0001
vn 0.9958 -0.0917 0.0016
vn 0.9871 -0.1602 0.0046
vn 0.9678 -0.2518 -0.0008
vn 0.9236 -0.3820 -0.0329
vn -0.8584 0.5129 -0.0000
vn -0.9237 0.3831 -0.0000
vn -0.9626 0.2711 -0.0000
vn -0.9841 0.1779 -0.0000
vn -0.9951 0.0993 -0.0000
vn -0.9996 0.0296 -0.0000
vn -1.0000 -0.0000 -0.0000
vn -0.9996 -0.0298 -0.0001
vn -0.9958 -0.0917 0.0016
vn -0.9871 -0.1602 0.0046
vn -0.9678 -0.2518 -0.0008
vn -0.9236 -0.3820 -0.0329
vn -0.0000 0.5124 0.8587
vn -0.0000 0.3826 0.9239
vn -0.0000 0.2706 0.9627
vn -0.0000 0.1775 0.9841
vn -0.0000 0.0991 0.9951
vn -0.0000 0.0260 0.9997
vn -0.0000 -0.0358 0.9994
vn -0.0000 -0.1131 0.9936
vn -0.0000 -0.2377 0.9713
vn -0.0000 -0.3883 0.9215
vn -0.0000 -0.5257 0.8507
vn -0.0000 -0.5274 0.8496
vn -0.8878 -0.4599 0.0176
vn 0.8878 -0.4599 0.0176
vn -0.0000 0.5124 -0.8587
vn -0.0000 0.3826 -0.9239
vn -0.0000 0.2706 -0.9627
vn -0.0000 0.1775 -0.9841
vn -0.0000 0.0991 -0.9951
vn -0.0000 0.0260 -0.9997
vn -0.0000 -0.0358 -0.9994
vn -0.0000 -0.1131 -0.9936
vn -0.0000 -0.2377 -0.9713
vn -0.0000 -0.3883 -0.9215
vn -0.0000 -0.5257 -0.8507
vn 0.9996 -0.0298 0.0001
vn 0.9958 -0.0917 -0.0016
vn 0.9871 -0.1602 -0.0046
vn 0.9678 -0.2518 0.0008
vn 0.9236 -0.3820 0.0329
vn -0.9996 -0.0298 0.0001
vn -0.9958 -0.0917 -0.0016
vn -0.9871 -0.1602 -0.0046
vn -0.9678 -0.2518 0.0008
vn -0.9236 -0.3820 0.0329
vn -0.0000 0.5135 0.8581
vn -0.0000 0.3836 0.9235
vn -0.0000 0.2715 0.9624
vn -0.0000 0.1782 0.9840
vn -0.0000 0.0995 0.9950
vn -0.0000 0.0297 0.9996
vn -0.0000 -0.0000 1.0000
vn -0.0000 -0.0297 0.9996
vn -0.0000 -0.0995 0.9950
vn -0.0000 -0.1782 0.9840
vn -0.0000 -0.2715 0.9624
vn -0.0000 -0.3836 0.9235
vn -0.9047 -0.4260 0.0093
vn 0.9047 -0.4260 0.0093
vn -0.9233 -0.3832 -0.0259
vn 0.9233 -0.3832 -0.0259
vn -0.0000 -0.7306 -0.6828
vn -0.0000 -0.7306 0.6828
vn -0.0000 -0.9154 0.4025
vn -0.0000 -0.9876 0.1567
vn -0.0000 -0.9876 -0.1567
vn -0.0000 -0.9154 -0.4025
vn 0.9233 -0.3832 0.0259
vn 0.9256 -0.3784 -0.0003
vn 0.9270 -0.3737 -0.0323
vn 0.9213 -0.3890 -0.0000
vn 0.9270 -0.3737 0.0323
vn 0.9256 -0.3784 0.0003
vn -0.9233 -0.3832 0.0259
vn -0.9256 -0.3784 -0.0003
vn -0.9270 -0.3737 -0.0323
vn -0.9213 -0.3890 -0.0000
vn -0.9270 -0.3737 0.0323
vn -0.9256 -0.3784 0.0003
vn 0.9047 -0.4260 -0.0093
vn 0.8829 -0.4694 -0.0129
vn 0.8635 -0.5021 -0.0481
vn 0.8487 -0.5289 -0.0000
vn 0.8635 -0.5021 0.0481
vn 0.8829 -0.4694 0.0129
vn -0.9047 -0.4260 -0.0093
vn -0.8829 -0.4694 -0.0129
vn -0.8635 -0.5021 -0.0481
vn -0.8487 -0.5289 -0.0000
vn -0.8635 -0.5021 0.0481
vn -0.8829 -0.4694 0.0129
vt 0.625000 0.500000
vt 0.875000 0.500000
vt 0.875000 0.750000
vt 0.625000 0.750000
vt 0.605769 0.000000
vt 0.625000 0.000000
vt 0.625000 0.250000
vt 0.605769 0.250000
vt 0.125000 0.500000
vt 0.375000 0.500000
vt 0.375000 0.750000
vt 0.125000 0.750000
vt 0.605769 0.500000
vt 0.605769 0.750000
vt 0.375000 0.250000
vt 0.394231 0.250000
vt 0.394231 0.500000
vt 0.413462 0.250000
vt 0.413462 0.500000
vt 0.432692 0.250000
vt 0.432692 0.500000
vt 0.451923 0.250000
vt 0.451923 0.500000
vt 0.471154 0.250000
vt 0.471154 0.500000
vt 0.490385 0.250000
vt 0.490385 0.500000
vt 0.509615 0.250000
vt 0.509615 0.500000
vt 0.528846 0.250000
vt 0.528846 0.500000
vt 0.548077 0.250000
vt 0.548077 0.500000
vt 0.567308 0.250000
vt 0.567308 0.500000
vt 0.586538 0.250000
vt 0.586538 0.500000
vt 0.394231 0.750000
vt 0.413462 0.750000
vt 0.432692 0.750000
vt 0.451923 0.750000
vt 0.471154 0.750000
vt 0.490385 0.750000
vt 0.509615 0.750000
vt 0.528846 0.750000
vt 0.548077 0.750000
vt 0.567308 0.750000
vt 0.586538 0.750000
vt 0.375000 0.000000
vt 0.394231 0.000000
vt 0.413462 0.000000
vt 0.432692 0.000000
vt 0.451923 0.000000
vt 0.471154 0.000000
vt 0.490385 0.000000
vt 0.509615 0.000000
vt 0.528846 0.000000
vt 0.548077 0.000000
vt 0.567308 0.000000
vt 0.586538 0.000000
vt 0.394231 1.000000
vt 0.375000 1.000000
vt 0.413462 1.000000
vt 0.432692 1.000000
vt 0.451923 1.000000
vt 0.471154 1.000000
vt 0.490385 1.000000
vt 0.509615 1.000000
vt 0.528846 1.000000
vt 0.548077 1.000000
vt 0.567308 1.000000
vt 0.586538 1.000000
vt 0.625000 1.000000
vt 0.605769 1.000000
vt 0.625000 0.535714
vt 0.875000 0.535714
vt 0.605769 0.214286
vt 0.660714 0.321429
vt 0.605769 0.535714
vt 0.586538 0.214286
vt 0.586538 0.535714
vt 0.586538 0.714286
vt 0.586538 0.035714
vt 0.586538 0.678571
vt 0.586538 0.071429
vt 0.586538 0.642857
vt 0.586538 0.107143
vt 0.586538 0.607143
vt 0.586538 0.142857
vt 0.586538 0.571429
vt 0.586538 0.178571
vt 0.605769 0.714286
vt 0.605769 0.678571
vt 0.605769 0.642857
vt 0.605769 0.607143
vt 0.605769 0.571429
vt 0.605769 0.035714
vt 0.605769 0.071429
vt 0.605769 0.107143
vt 0.605769 0.142857
vt 0.605769 0.178571
vt 0.625000 0.714286
vt 0.625000 0.678571
vt 0.625000 0.642857
vt 0.625000 0.607143
vt 0.625000 0.571429
vt 0.839286 0.678571
vt 0.803571 0.607143
vt 0.767857 0.535714
vt 0.732143 0.464286
vt 0.696429 0.392857
vt 0.875000 0.714286
vt 0.875000 0.678571
vt 0.875000 0.642857
vt 0.875000 0.607143
vt 0.875000 0.571429
s 0
usemtl Material
f 1/1/1 5/2/1 7/3/1 3/4/1
f 32/5/2 7/6/2 5/7/2 45/8/2
f 6/9/3 2/10/3 4/11/3 8/12/3
f 9/13/4 1/1/4 3/4/4 33/14/4
f 45/8/5 5/7/5 1/1/5 9/13/5
f 6/15/6 56/16/6 20/17/6 2/10/6
f 56/16/7 55/18/7 19/19/7 20/17/7
f 55/18/8 54/20/8 18/21/8 19/19/8
f 54/20/9 53/22/9 17/23/9 18/21/9
f 53/22/10 52/24/10 16/25/10 17/23/10
f 52/24/11 51/26/11 15/27/11 16/25/11
f 51/26/12 50/28/12 14/29/12 15/27/12
f 50/28/13 49/30/13 13/31/13 14/29/13
f 49/30/14 48/32/14 12/33/14 13/31/14
f 48/32/15 47/34/15 11/35/15 12/33/15
f 47/34/16 46/36/16 10/37/16 11/35/16
f 46/36/17 45/8/17 9/13/17 10/37/17
f 2/10/18 20/17/18 44/38/18 4/11/18
f 20/17/19 19/19/19 43/39/19 44/38/19
f 19/19/20 18/21/20 42/40/20 43/39/20
f 18/21/21 17/23/21 41/41/21 42/40/21
f 17/23/22 16/25/22 40/42/22 41/41/22
f 16/25/23 15/27/23 39/43/23 40/42/23
f 15/27/24 14/29/24 38/44/24 39/43/24
f 14/29/25 13/31/25 37/45/25 38/44/25
f 13/31/26 12/33/26 36/46/26 37/45/26
f 12/33/27 11/35/27 35/47/27 36/46/27
f 11/35/28 10/37/28 34/48/28 35/47/28
f 10/37/29 9/13/29 33/14/29 34/48/29
f 8/49/30 21/50/30 56/16/30 6/15/30
f 21/50/31 22/51/31 55/18/31 56/16/31
f 22/51/32 23/52/32 54/20/32 55/18/32
f 23/52/33 24/53/33 53/22/33 54/20/33
f 24/53/34 25/54/34 52/24/34 53/22/34
f 25/54/35 26/55/35 51/26/35 52/24/35
f 26/55/36 27/56/36 50/28/36 51/26/36
f 27/56/37 28/57/37 49/30/37 50/28/37
f 28/57/38 29/58/38 48/32/38 49/30/38
f 29/58/39 30/59/39 47/34/39 48/32/39
f 30/59/40 31/60/40 46/36/40 47/34/40
f 31/60/41 32/5/41 45/8/41 46/36/41
f 4/11/42 44/38/42 21/61/42 8/62/42
f 44/38/43 43/39/43 22/63/43 21/61/43
f 43/39/44 42/40/44 23/64/44 22/63/44
f 42/40/45 41/41/45 24/65/45 23/64/45
f 41/41/46 40/42/46 25/66/46 24/65/46
f 40/42/47 39/43/47 26/67/47 25/66/47
f 39/43/48 38/44/48 27/68/48 26/67/48
f 38/44/49 37/45/49 28/69/49 27/68/49
f 37/45/50 36/46/50 29/70/50 28/69/50
f 36/46/51 35/47/51 30/71/51 29/70/51
f 35/47/52 34/48/52 31/72/52 30/71/52
f 57/1/1 61/2/1 63/3/1 59/4/1
f 89/14/53 59/4/53 63/73/53 88/74/53
f 88/5/54 63/6/54 61/7/54 101/8/54
f 62/9/3 58/10/3 60/11/3 64/12/3
f 65/13/55 57/1/55 59/4/55 89/14/55
f 62/15/56 112/16/56 76/17/56 58/10/56
f 112/16/57 111/18/57 75/19/57 76/17/57
f 111/18/58 110/20/58 74/21/58 75/19/58
f 110/20/59 109/22/59 73/23/59 74/21/59
f 109/22/60 108/24/60 72/25/60 73/23/60
f 108/24/61 107/26/61 71/27/61 72/25/61
f 107/26/62 106/28/62 70/29/62 71/27/62
f 106/28/63 105/30/63 69/31/63 70/29/63
f 105/30/64 104/32/64 68/33/64 69/31/64
f 104/32/65 103/34/65 67/35/65 68/33/65
f 103/34/66 102/36/66 66/37/66 67/35/66
f 58/10/18 76/17/18 100/38/18 60/11/18
f 76/17/19 75/19/19 99/39/19 100/38/19
f 75/19/20 74/21/20 98/40/20 99/39/20
f 74/21/21 73/23/21 97/41/21 98/40/21
f 73/23/22 72/25/22 96/42/22 97/41/22
f 72/25/23 71/27/23 95/43/23 96/42/23
f 71/27/24 70/29/24 94/44/24 95/43/24
f 70/29/67 69/31/67 93/45/67 94/44/67
f 69/31/68 68/33/68 92/46/68 93/45/68
f 68/33/69 67/35/69 91/47/69 92/46/69
f 67/35/70 66/37/70 90/48/70 91/47/70
f 66/37/71 65/13/71 89/14/71 90/48/71
f 64/49/30 77/50/30 112/16/30 62/15/30
f 77/50/31 78/51/31 111/18/31 112/16/31
f 78/51/32 79/52/32 110/20/32 111/18/32
f 79/52/33 80/53/33 109/22/33 110/20/33
f 80/53/34 81/54/34 108/24/34 109/22/34
f 81/54/35 82/55/35 107/26/35 108/24/35
f 82/55/36 83/56/36 106/28/36 107/26/36
f 83/56/72 84/57/72 105/30/72 106/28/72
f 84/57/73 85/58/73 104/32/73 105/30/73
f 85/58/74 86/59/74 103/34/74 104/32/74
f 86/59/75 87/60/75 102/36/75 103/34/75
f 87/60/76 88/5/76 101/8/76 102/36/76
f 60/11/77 100/38/77 77/61/77 64/62/77
f 100/38/78 99/39/78 78/63/78 77/61/78
f 99/39/79 98/40/79 79/64/79 78/63/79
f 98/40/80 97/41/80 80/65/80 79/64/80
f 97/41/81 96/42/81 81/66/81 80/65/81
f 96/42/82 95/43/82 82/67/82 81/66/82
f 95/43/83 94/44/83 83/68/83 82/67/83
f 94/44/84 93/45/84 84/69/84 83/68/84
f 93/45/85 92/46/85 85/70/85 84/69/85
f 92/46/86 91/47/86 86/71/86 85/70/86
f 91/47/87 90/48/87 87/72/87 86/71/87
f 90/48/88 89/14/88 88/74/88 87/72/88
f 118/75/1 124/76/1 61/2/1 57/1/1
f 130/77/89 101/8/89 61/7/89 124/78/89
f 136/79/90 118/75/90 57/1/90 65/13/90
f 142/80/91 102/36/91 101/8/91 130/77/91
f 148/81/92 136/79/92 65/13/92 66/37/92
f 148/81/93 66/37/93 102/36/93 142/80/93
f 34/48/94 143/82/94 137/83/94 31/60/94
f 143/82/95 144/84/95 138/85/95 137/83/95
f 144/84/96 145/86/96 139/87/96 138/85/96
f 145/86/3 146/88/3 140/89/3 139/87/3
f 146/88/97 147/90/97 141/91/97 140/89/97
f 147/90/98 148/81/98 142/80/98 141/91/98
f 34/48/99 33/14/99 131/92/99 143/82/99
f 143/82/100 131/92/100 132/93/100 144/84/100
f 144/84/101 132/93/101 133/94/101 145/86/101
f 145/86/102 133/94/102 134/95/102 146/88/102
f 146/88/103 134/95/103 135/96/103 147/90/103
f 147/90/104 135/96/104 136/79/104 148/81/104
f 31/60/105 137/83/105 125/97/105 32/5/105
f 137/83/106 138/85/106 126/98/106 125/97/106
f 138/85/107 139/87/107 127/99/107 126/98/107
f 139/87/108 140/89/108 128/100/108 127/99/108
f 140/89/109 141/91/109 129/101/109 128/100/109
f 141/91/110 142/80/110 130/77/110 129/101/110
f 33/14/111 3/4/111 113/102/111 131/92/111
f 131/92/112 113/102/112 114/103/112 132/93/112
f 132/93/113 114/103/113 115/104/113 133/94/113
f 133/94/114 115/104/114 116/105/114 134/95/114
f 134/95/115 116/105/115 117/106/115 135/96/115
f 135/96/116 117/106/116 118/75/116 136/79/116
f 32/5/117 125/97/117 119/107/117 7/3/117
f 125/97/118 126/98/118 120/108/118 119/107/118
f 126/98/119 127/99/119 121/109/119 120/108/119
f 127/99/120 128/100/120 122/110/120 121/109/120
f 128/100/121 129/101/121 123/111/121 122/110/121
f 129/101/122 130/77/122 124/78/122 123/111/122
f 3/4/1 7/3/1 119/112/1 113/102/1
f 113/102/1 119/112/1 120/113/1 114/103/1
f 114/103/1 120/113/1 121/114/1 115/104/1
f 115/104/1 121/114/1 122/115/1 116/105/1
f 116/105/1 122/115/1 123/116/1 117/106/1
f 117/106/1 123/116/1 124/76/1 118/75/1
