# Blender 4.5.0
# www.blender.org
mtllib Blocking_Saeule_duenn.mtl
o Cube.004
v 1.132784 3.421316 -26.332937
v 1.132784 -3.421316 -26.332937
v 1.132784 3.421316 -24.067369
v 1.132784 -3.421316 -24.067369
v -1.132784 3.421316 -26.332937
v -1.132784 -3.421316 -26.332937
v -1.132784 3.421316 -24.067369
v -1.132784 -3.421316 -24.067369
v 0.938000 2.894959 -26.138153
v 0.793609 2.368603 -25.993763
v 0.690367 1.842247 -25.890520
v 0.621669 1.315891 -25.821823
v 0.583132 0.789535 -25.783285
v 0.571993 0.263178 -25.772146
v 0.571993 -0.263178 -25.772146
v 0.583132 -0.789534 -25.783285
v 0.621669 -1.315891 -25.821823
v 0.690367 -1.842247 -25.890520
v 0.793609 -2.368603 -25.993763
v 0.938000 -2.894959 -26.138153
v -0.938000 -2.894959 -24.262154
v -0.793609 -2.368603 -24.406544
v -0.690367 -1.842247 -24.509787
v -0.621669 -1.315891 -24.578484
v -0.583132 -0.789535 -24.617022
v -0.571993 -0.263178 -24.628160
v -0.571993 0.263178 -24.628160
v -0.583132 0.789534 -24.617022
v -0.621669 1.315891 -24.578484
v -0.690367 1.842247 -24.509787
v -0.793609 2.368603 -24.406544
v -0.938000 2.894959 -24.262154
v 0.938000 2.894959 -24.262154
v 0.793609 2.368603 -24.406544
v 0.690367 1.842247 -24.509787
v 0.621669 1.315891 -24.578484
v 0.583132 0.789535 -24.617022
v 0.571993 0.263178 -24.628160
v 0.571993 -0.263178 -24.628160
v 0.583132 -0.789534 -24.617022
v 0.621669 -1.315891 -24.578484
v 0.690367 -1.842247 -24.509787
v 0.793609 -2.368603 -24.406544
v 0.938000 -2.894959 -24.262154
v -0.938000 2.894959 -26.138153
v -0.793609 2.368603 -25.993763
v -0.690367 1.842247 -25.890520
v -0.621669 1.315891 -25.821823
v -0.583132 0.789535 -25.783285
v -0.571993 0.263178 -25.772146
v -0.571993 -0.263178 -25.772146
v -0.583132 -0.789534 -25.783285
v -0.621669 -1.315891 -25.821823
v -0.690367 -1.842247 -25.890520
v -0.793609 -2.368603 -25.993763
v -0.938000 -2.894959 -26.138153
vn -0.0000 1.0000 -0.0000
vn -0.0000 -0.3471 0.9378
vn -0.9378 -0.3471 -0.0000
vn -0.0000 -1.0000 -0.0000
vn 0.9378 -0.3471 -0.0000
vn -0.0000 -0.3471 -0.9378
vn -0.0000 0.3471 -0.9378
vn -0.0000 0.2645 -0.9644
vn -0.0000 0.1925 -0.9813
vn -0.0000 0.1294 -0.9916
vn -0.0000 0.0730 -0.9973
vn -0.0000 0.0212 -0.9998
vn -0.0000 -0.0000 -1.0000
vn -0.0000 -0.0212 -0.9998
vn -0.0000 -0.0730 -0.9973
vn -0.0000 -0.1294 -0.9916
vn -0.0000 -0.1925 -0.9813
vn -0.0000 -0.2645 -0.9644
vn 0.9378 0.3471 -0.0000
vn 0.9644 0.2645 -0.0000
vn 0.9813 0.1925 -0.0000
vn 0.9916 0.1294 -0.0000
vn 0.9973 0.0730 -0.0000
vn 0.9998 0.0212 -0.0000
vn 1.0000 -0.0000 -0.0000
vn 0.9998 -0.0212 -0.0000
vn 0.9973 -0.0730 -0.0000
vn 0.9916 -0.1294 -0.0000
vn 0.9813 -0.1925 -0.0000
vn 0.9644 -0.2645 -0.0000
vn -0.9378 0.3471 -0.0000
vn -0.9644 0.2645 -0.0000
vn -0.9813 0.1925 -0.0000
vn -0.9916 0.1294 -0.0000
vn -0.9973 0.0730 -0.0000
vn -0.9998 0.0212 -0.0000
vn -1.0000 -0.0000 -0.0000
vn -0.9998 -0.0212 -0.0000
vn -0.9973 -0.0730 -0.0000
vn -0.9916 -0.1294 -0.0000
vn -0.9813 -0.1925 -0.0000
vn -0.9644 -0.2645 -0.0000
vn -0.0000 0.3471 0.9378
vn -0.0000 0.2645 0.9644
vn -0.0000 0.1925 0.9813
vn -0.0000 0.1294 0.9916
vn -0.0000 0.0730 0.9973
vn -0.0000 0.0212 0.9998
vn -0.0000 -0.0000 1.0000
vn -0.0000 -0.0212 0.9998
vn -0.0000 -0.0730 0.9973
vn -0.0000 -0.1294 0.9916
vn -0.0000 -0.1925 0.9813
vn -0.0000 -0.2645 0.9644
vt 0.625000 0.500000
vt 0.875000 0.500000
vt 0.875000 0.750000
vt 0.625000 0.750000
vt 0.605769 0.750000
vt 0.625000 1.000000
vt 0.605769 1.000000
vt 0.605769 0.000000
vt 0.625000 0.000000
vt 0.625000 0.250000
vt 0.605769 0.250000
vt 0.125000 0.500000
vt 0.375000 0.500000
vt 0.375000 0.750000
vt 0.125000 0.750000
vt 0.605769 0.500000
vt 0.375000 0.250000
vt 0.394231 0.250000
vt 0.394231 0.500000
vt 0.413462 0.250000
vt 0.413462 0.500000
vt 0.432692 0.250000
vt 0.432692 0.500000
vt 0.451923 0.250000
vt 0.451923 0.500000
vt 0.471154 0.250000
vt 0.471154 0.500000
vt 0.490385 0.250000
vt 0.490385 0.500000
vt 0.509615 0.250000
vt 0.509615 0.500000
vt 0.528846 0.250000
vt 0.528846 0.500000
vt 0.548077 0.250000
vt 0.548077 0.500000
vt 0.567308 0.250000
vt 0.567308 0.500000
vt 0.586538 0.250000
vt 0.586538 0.500000
vt 0.394231 0.750000
vt 0.413462 0.750000
vt 0.432692 0.750000
vt 0.451923 0.750000
vt 0.471154 0.750000
vt 0.490385 0.750000
vt 0.509615 0.750000
vt 0.528846 0.750000
vt 0.548077 0.750000
vt 0.567308 0.750000
vt 0.586538 0.750000
vt 0.375000 0.000000
vt 0.394231 0.000000
vt 0.413462 0.000000
vt 0.432692 0.000000
vt 0.451923 0.000000
vt 0.471154 0.000000
vt 0.490385 0.000000
vt 0.509615 0.000000
vt 0.528846 0.000000
vt 0.548077 0.000000
vt 0.567308 0.000000
vt 0.586538 0.000000
vt 0.394231 1.000000
vt 0.375000 1.000000
vt 0.413462 1.000000
vt 0.432692 1.000000
vt 0.451923 1.000000
vt 0.471154 1.000000
vt 0.490385 1.000000
vt 0.509615 1.000000
vt 0.528846 1.000000
vt 0.548077 1.000000
vt 0.567308 1.000000
vt 0.586538 1.000000
s 0
usemtl Material
f 1/1/1 5/2/1 7/3/1 3/4/1
f 33/5/2 3/4/2 7/6/2 32/7/2
f 32/8/3 7/9/3 5/10/3 45/11/3
f 6/12/4 2/13/4 4/14/4 8/15/4
f 9/16/5 1/1/5 3/4/5 33/5/5
f 45/11/6 5/10/6 1/1/6 9/16/6
f 6/17/7 56/18/7 20/19/7 2/13/7
f 56/18/8 55/20/8 19/21/8 20/19/8
f 55/20/9 54/22/9 18/23/9 19/21/9
f 54/22/10 53/24/10 17/25/10 18/23/10
f 53/24/11 52/26/11 16/27/11 17/25/11
f 52/26/12 51/28/12 15/29/12 16/27/12
f 51/28/13 50/30/13 14/31/13 15/29/13
f 50/30/14 49/32/14 13/33/14 14/31/14
f 49/32/15 48/34/15 12/35/15 13/33/15
f 48/34/16 47/36/16 11/37/16 12/35/16
f 47/36/17 46/38/17 10/39/17 11/37/17
f 46/38/18 45/11/18 9/16/18 10/39/18
f 2/13/19 20/19/19 44/40/19 4/14/19
f 20/19/20 19/21/20 43/41/20 44/40/20
f 19/21/21 18/23/21 42/42/21 43/41/21
f 18/23/22 17/25/22 41/43/22 42/42/22
f 17/25/23 16/27/23 40/44/23 41/43/23
f 16/27/24 15/29/24 39/45/24 40/44/24
f 15/29/25 14/31/25 38/46/25 39/45/25
f 14/31/26 13/33/26 37/47/26 38/46/26
f 13/33/27 12/35/27 36/48/27 37/47/27
f 12/35/28 11/37/28 35/49/28 36/48/28
f 11/37/29 10/39/29 34/50/29 35/49/29
f 10/39/30 9/16/30 33/5/30 34/50/30
f 8/51/31 21/52/31 56/18/31 6/17/31
f 21/52/32 22/53/32 55/20/32 56/18/32
f 22/53/33 23/54/33 54/22/33 55/20/33
f 23/54/34 24/55/34 53/24/34 54/22/34
f 24/55/35 25/56/35 52/26/35 53/24/35
f 25/56/36 26/57/36 51/28/36 52/26/36
f 26/57/37 27/58/37 50/30/37 51/28/37
f 27/58/38 28/59/38 49/32/38 50/30/38
f 28/59/39 29/60/39 48/34/39 49/32/39
f 29/60/40 30/61/40 47/36/40 48/34/40
f 30/61/41 31/62/41 46/38/41 47/36/41
f 31/62/42 32/8/42 45/11/42 46/38/42
f 4/14/43 44/40/43 21/63/43 8/64/43
f 44/40/44 43/41/44 22/65/44 21/63/44
f 43/41/45 42/42/45 23/66/45 22/65/45
f 42/42/46 41/43/46 24/67/46 23/66/46
f 41/43/47 40/44/47 25/68/47 24/67/47
f 40/44/48 39/45/48 26/69/48 25/68/48
f 39/45/49 38/46/49 27/70/49 26/69/49
f 38/46/50 37/47/50 28/71/50 27/70/50
f 37/47/51 36/48/51 29/72/51 28/71/51
f 36/48/52 35/49/52 30/73/52 29/72/52
f 35/49/53 34/50/53 31/74/53 30/73/53
f 34/50/54 33/5/54 32/7/54 31/74/54
