# Blender 4.5.0
# www.blender.org
mtllib Blocking_Torbogen_dick.mtl
o Cube.001
v 1.980416 3.397789 -9.330835
v 1.980416 -3.421316 -9.330835
v 1.980416 3.397789 -5.360717
v 1.980416 -3.421316 -5.370004
v -1.980416 3.397789 -9.330835
v -1.980416 -3.421316 -9.330835
v -1.980416 3.397789 -5.360717
v -1.980416 -3.421316 -5.370004
v 1.639881 2.894959 -8.990301
v 1.387445 2.368603 -8.737865
v 1.206950 1.842247 -8.557370
v 1.086848 1.315891 -8.437268
v 1.019475 0.789535 -8.369895
v 1.000000 0.263178 -8.350420
v 1.000000 -0.263178 -8.350420
v 1.019475 -0.789534 -8.369895
v 1.086848 -1.315891 -8.437268
v 1.206950 -1.842247 -8.557370
v 1.387445 -2.368603 -8.737865
v 1.639881 -2.894959 -8.990301
v -1.639881 -2.894959 -5.710539
v -1.387445 -2.368603 -5.962975
v -1.206950 -1.842247 -6.143470
v -1.086848 -1.315891 -6.263572
v -1.019475 -0.789535 -6.330945
v -1.000000 -0.263178 -6.347201
v -1.000000 0.263178 -6.314743
v -1.018901 0.760592 -6.224768
v -1.061831 1.188705 -6.066623
v -1.116691 1.538338 -5.850823
v -1.182351 1.793752 -5.627491
v -1.608917 2.610620 -5.604069
v 1.608917 2.610620 -5.604069
v 1.182351 1.793752 -5.627491
v 1.116691 1.538338 -5.850823
v 1.061831 1.188705 -6.066623
v 1.018901 0.760592 -6.224768
v 1.000000 0.263178 -6.314743
v 1.000000 -0.263178 -6.347201
v 1.019475 -0.789534 -6.330945
v 1.086848 -1.315891 -6.263572
v 1.206950 -1.842247 -6.143470
v 1.387445 -2.368603 -5.962975
v 1.639881 -2.894959 -5.710539
v -1.639881 2.894959 -8.990301
v -1.387445 2.368603 -8.737865
v -1.206950 1.842247 -8.557370
v -1.086848 1.315891 -8.437268
v -1.019475 0.789535 -8.369895
v -1.000000 0.263178 -8.350420
v -1.000000 -0.263178 -8.350420
v -1.019475 -0.789534 -8.369895
v -1.086848 -1.315891 -8.437268
v -1.206950 -1.842247 -8.557370
v -1.387445 -2.368603 -8.737865
v -1.639881 -2.894959 -8.990301
v 1.980416 3.397789 -1.989703
v 1.980416 -3.421316 -1.980415
v 1.980416 3.397789 1.980416
v 1.980416 -3.421316 1.980416
v -1.980416 3.397789 -1.989703
v -1.980416 -3.421316 -1.980415
v -1.980416 3.397789 1.980416
v -1.980416 -3.421316 1.980416
v 1.608917 2.610620 -1.746351
v 1.182351 1.793752 -1.722929
v 1.116691 1.538338 -1.499596
v 1.061831 1.188705 -1.283796
v 1.018901 0.760592 -1.125652
v 1.000000 0.263178 -1.035676
v 1.000000 -0.263178 -1.003219
v 1.019475 -0.789534 -1.019475
v 1.086848 -1.315891 -1.086848
v 1.206950 -1.842247 -1.206949
v 1.387445 -2.368603 -1.387445
v 1.639881 -2.894959 -1.639881
v -1.639881 -2.894959 1.639881
v -1.387445 -2.368603 1.387445
v -1.206950 -1.842247 1.206950
v -1.086848 -1.315891 1.086849
v -1.019475 -0.789535 1.019476
v -1.000000 -0.263178 1.000000
v -1.000000 0.263178 1.000000
v -1.019475 0.789534 1.019476
v -1.086848 1.315891 1.086849
v -1.206950 1.842247 1.206950
v -1.387445 2.368603 1.387445
v -1.639881 2.894959 1.639881
v 1.639881 2.894959 1.639881
v 1.387445 2.368603 1.387445
v 1.206950 1.842247 1.206950
v 1.086848 1.315891 1.086849
v 1.019475 0.789535 1.019476
v 1.000000 0.263178 1.000000
v 1.000000 -0.263178 1.000000
v 1.019475 -0.789534 1.019476
v 1.086848 -1.315891 1.086849
v 1.206950 -1.842247 1.206950
v 1.387445 -2.368603 1.387445
v 1.639881 -2.894959 1.639881
v -1.608917 2.610620 -1.746351
v -1.182351 1.793752 -1.722929
v -1.116691 1.538338 -1.499596
v -1.061831 1.188705 -1.283796
v -1.018901 0.760592 -1.125652
v -1.000000 0.263178 -1.035676
v -1.000000 -0.263178 -1.003219
v -1.019475 -0.789534 -1.019475
v -1.086848 -1.315891 -1.086848
v -1.206950 -1.842247 -1.206949
v -1.387445 -2.368603 -1.387445
v -1.639881 -2.894959 -1.639881
v 1.980416 3.397789 -4.884555
v 1.980416 3.397789 -4.401550
v 1.980416 3.397789 -3.917323
v 1.980416 3.397789 -3.433096
v 1.980416 3.397789 -2.948869
v 1.980416 3.397789 -2.465865
v -1.980416 3.397789 -4.884555
v -1.980416 3.397789 -4.401550
v -1.980416 3.397789 -3.917323
v -1.980416 3.397789 -3.433096
v -1.980416 3.397789 -2.948869
v -1.980416 3.397789 -2.465865
v -1.633450 2.736450 -5.089853
v -1.639881 2.848032 -4.542291
v -1.639881 2.894463 -3.965971
v -1.639881 2.894463 -3.384449
v -1.639881 2.848032 -2.808128
v -1.633450 2.736450 -2.260566
v 1.633450 2.736450 -5.089853
v 1.639881 2.848032 -4.542291
v 1.639881 2.894463 -3.965971
v 1.639881 2.894463 -3.384449
v 1.639881 2.848032 -2.808128
v 1.633450 2.736450 -2.260566
v -1.312399 2.090881 -5.193607
v -1.381618 2.281107 -4.633943
v -1.387445 2.364430 -4.001656
v -1.387445 2.364430 -3.348763
v -1.381618 2.281107 -2.716477
v -1.312399 2.090881 -2.156812
v 1.312399 2.090881 -5.193607
v 1.381618 2.281107 -4.633943
v 1.387445 2.364430 -4.001656
v 1.387445 2.364430 -3.348763
v 1.381618 2.281107 -2.716477
v 1.312399 2.090881 -2.156812
vn -0.0000 1.0000 -0.0000
vn -0.8749 -0.4841 -0.0150
vn -0.0000 -1.0000 -0.0000
vn 0.8749 -0.4841 -0.0150
vn -0.0000 -0.5607 -0.8280
vn -0.0000 0.5432 -0.8396
vn -0.0000 0.4324 -0.9017
vn -0.0000 0.3244 -0.9459
vn -0.0000 0.2225 -0.9749
vn -0.0000 0.1270 -0.9919
vn -0.0000 0.0370 -0.9993
vn -0.0000 -0.0000 -1.0000
vn -0.0000 -0.0370 -0.9993
vn -0.0000 -0.1270 -0.9919
vn -0.0000 -0.2225 -0.9749
vn -0.0000 -0.3244 -0.9459
vn -0.0000 -0.4324 -0.9017
vn 0.8396 0.5432 -0.0000
vn 0.9017 0.4324 -0.0000
vn 0.9459 0.3244 -0.0000
vn 0.9749 0.2225 -0.0000
vn 0.9919 0.1270 -0.0000
vn 0.9993 0.0370 -0.0000
vn 1.0000 -0.0000 -0.0000
vn 0.9993 -0.0375 -0.0001
vn 0.9934 -0.1150 0.0017
vn 0.9805 -0.1964 0.0056
vn 0.9538 -0.3005 0.0030
vn 0.8902 -0.4547 -0.0278
vn -0.8396 0.5432 -0.0000
vn -0.9017 0.4324 -0.0000
vn -0.9459 0.3244 -0.0000
vn -0.9749 0.2225 -0.0000
vn -0.9919 0.1270 -0.0000
vn -0.9993 0.0370 -0.0000
vn -1.0000 -0.0000 -0.0000
vn -0.9993 -0.0375 -0.0001
vn -0.9934 -0.1150 0.0017
vn -0.9805 -0.1964 0.0056
vn -0.9538 -0.3005 0.0030
vn -0.8902 -0.4547 -0.0278
vn -0.0000 0.5432 0.8396
vn -0.0000 0.4324 0.9017
vn -0.0000 0.3244 0.9459
vn -0.0000 0.2225 0.9749
vn -0.0000 0.1270 0.9919
vn -0.0000 0.0309 0.9995
vn -0.0000 -0.0615 0.9981
vn -0.0000 -0.1780 0.9840
vn -0.0000 -0.3465 0.9380
vn -0.0000 -0.5252 0.8510
vn -0.0000 -0.6582 0.7528
vn -0.0000 -0.5607 0.8280
vn -0.8749 -0.4841 0.0150
vn 0.8749 -0.4841 0.0150
vn -0.0000 0.0309 -0.9995
vn -0.0000 -0.0615 -0.9981
vn -0.0000 -0.1780 -0.9840
vn -0.0000 -0.3465 -0.9380
vn -0.0000 -0.5252 -0.8510
vn -0.0000 -0.6582 -0.7528
vn 0.9993 -0.0375 0.0001
vn 0.9934 -0.1150 -0.0017
vn 0.9805 -0.1964 -0.0056
vn 0.9538 -0.3005 -0.0030
vn 0.8902 -0.4547 0.0278
vn -0.9993 -0.0375 0.0001
vn -0.9934 -0.1150 -0.0017
vn -0.9805 -0.1964 -0.0056
vn -0.9538 -0.3005 -0.0030
vn -0.8902 -0.4547 0.0278
vn -0.0000 0.0370 0.9993
vn -0.0000 -0.0000 1.0000
vn -0.0000 -0.0370 0.9993
vn -0.0000 -0.1270 0.9919
vn -0.0000 -0.2225 0.9749
vn -0.0000 -0.3244 0.9459
vn -0.0000 -0.4324 0.9017
vn -0.8909 -0.4529 -0.0355
vn 0.8909 -0.4529 -0.0355
vn -0.8867 -0.4585 -0.0600
vn 0.8867 -0.4585 -0.0600
vn -0.0000 -0.8251 -0.5650
vn -0.0000 -0.8251 0.5650
vn -0.0000 -0.9468 0.3218
vn -0.0000 -0.9914 0.1307
vn -0.0000 -0.9914 -0.1307
vn -0.0000 -0.9468 -0.3218
vn 0.8867 -0.4585 0.0600
vn 0.8971 -0.4380 0.0581
vn 0.9039 -0.4256 0.0413
vn 0.9028 -0.4300 -0.0000
vn 0.9039 -0.4256 -0.0413
vn 0.8971 -0.4380 -0.0581
vn -0.8867 -0.4585 0.0600
vn -0.8971 -0.4380 0.0581
vn -0.9039 -0.4256 0.0413
vn -0.9028 -0.4300 -0.0000
vn -0.9039 -0.4256 -0.0413
vn -0.8971 -0.4380 -0.0581
vn 0.8909 -0.4529 0.0355
vn 0.8625 -0.5037 0.0491
vn 0.8375 -0.5459 0.0239
vn 0.8282 -0.5604 -0.0000
vn 0.8375 -0.5459 -0.0239
vn 0.8625 -0.5037 -0.0491
vn -0.8909 -0.4529 0.0355
vn -0.8625 -0.5037 0.0491
vn -0.8375 -0.5459 0.0239
vn -0.8282 -0.5604 -0.0000
vn -0.8375 -0.5459 -0.0239
vn -0.8625 -0.5037 -0.0491
vt 0.625000 0.500000
vt 0.875000 0.500000
vt 0.875000 0.750000
vt 0.625000 0.750000
vt 0.605769 0.000000
vt 0.625000 0.000000
vt 0.625000 0.250000
vt 0.605769 0.250000
vt 0.125000 0.500000
vt 0.375000 0.500000
vt 0.375000 0.750000
vt 0.125000 0.750000
vt 0.605769 0.500000
vt 0.605769 0.750000
vt 0.375000 0.250000
vt 0.394231 0.250000
vt 0.394231 0.500000
vt 0.413462 0.250000
vt 0.413462 0.500000
vt 0.432692 0.250000
vt 0.432692 0.500000
vt 0.451923 0.250000
vt 0.451923 0.500000
vt 0.471154 0.250000
vt 0.471154 0.500000
vt 0.490385 0.250000
vt 0.490385 0.500000
vt 0.509615 0.250000
vt 0.509615 0.500000
vt 0.528846 0.250000
vt 0.528846 0.500000
vt 0.548077 0.250000
vt 0.548077 0.500000
vt 0.567308 0.250000
vt 0.567308 0.500000
vt 0.586538 0.250000
vt 0.586538 0.500000
vt 0.394231 0.750000
vt 0.413462 0.750000
vt 0.432692 0.750000
vt 0.451923 0.750000
vt 0.471154 0.750000
vt 0.490385 0.750000
vt 0.509615 0.750000
vt 0.528846 0.750000
vt 0.548077 0.750000
vt 0.567308 0.750000
vt 0.586538 0.750000
vt 0.375000 0.000000
vt 0.394231 0.000000
vt 0.413462 0.000000
vt 0.432692 0.000000
vt 0.451923 0.000000
vt 0.471154 0.000000
vt 0.490385 0.000000
vt 0.509615 0.000000
vt 0.528846 0.000000
vt 0.548077 0.000000
vt 0.567308 0.000000
vt 0.586538 0.000000
vt 0.394231 1.000000
vt 0.375000 1.000000
vt 0.413462 1.000000
vt 0.432692 1.000000
vt 0.451923 1.000000
vt 0.471154 1.000000
vt 0.490385 1.000000
vt 0.509615 1.000000
vt 0.528846 1.000000
vt 0.548077 1.000000
vt 0.567308 1.000000
vt 0.586538 1.000000
vt 0.625000 1.000000
vt 0.605769 1.000000
vt 0.625000 0.535714
vt 0.875000 0.535714
vt 0.605769 0.214286
vt 0.660714 0.321429
vt 0.605769 0.535714
vt 0.586538 0.214286
vt 0.586538 0.535714
vt 0.586538 0.714286
vt 0.586538 0.035714
vt 0.586538 0.678571
vt 0.586538 0.071429
vt 0.586538 0.642857
vt 0.586538 0.107143
vt 0.586538 0.607143
vt 0.586538 0.142857
vt 0.586538 0.571429
vt 0.586538 0.178571
vt 0.605769 0.714286
vt 0.605769 0.678571
vt 0.605769 0.642857
vt 0.605769 0.607143
vt 0.605769 0.571429
vt 0.605769 0.035714
vt 0.605769 0.071429
vt 0.605769 0.107143
vt 0.605769 0.142857
vt 0.605769 0.178571
vt 0.625000 0.714286
vt 0.625000 0.678571
vt 0.625000 0.642857
vt 0.625000 0.607143
vt 0.625000 0.571429
vt 0.839286 0.678571
vt 0.803571 0.607143
vt 0.767857 0.535714
vt 0.732143 0.464286
vt 0.696429 0.392857
vt 0.875000 0.714286
vt 0.875000 0.678571
vt 0.875000 0.642857
vt 0.875000 0.607143
vt 0.875000 0.571429
s 0
usemtl Material
f 1/1/1 5/2/1 7/3/1 3/4/1
f 32/5/2 7/6/2 5/7/2 45/8/2
f 6/9/3 2/10/3 4/11/3 8/12/3
f 9/13/4 1/1/4 3/4/4 33/14/4
f 45/8/5 5/7/5 1/1/5 9/13/5
f 6/15/6 56/16/6 20/17/6 2/10/6
f 56/16/7 55/18/7 19/19/7 20/17/7
f 55/18/8 54/20/8 18/21/8 19/19/8
f 54/20/9 53/22/9 17/23/9 18/21/9
f 53/22/10 52/24/10 16/25/10 17/23/10
f 52/24/11 51/26/11 15/27/11 16/25/11
f 51/26/12 50/28/12 14/29/12 15/27/12
f 50/28/13 49/30/13 13/31/13 14/29/13
f 49/30/14 48/32/14 12/33/14 13/31/14
f 48/32/15 47/34/15 11/35/15 12/33/15
f 47/34/16 46/36/16 10/37/16 11/35/16
f 46/36/17 45/8/17 9/13/17 10/37/17
f 2/10/18 20/17/18 44/38/18 4/11/18
f 20/17/19 19/19/19 43/39/19 44/38/19
f 19/19/20 18/21/20 42/40/20 43/39/20
f 18/21/21 17/23/21 41/41/21 42/40/21
f 17/23/22 16/25/22 40/42/22 41/41/22
f 16/25/23 15/27/23 39/43/23 40/42/23
f 15/27/24 14/29/24 38/44/24 39/43/24
f 14/29/25 13/31/25 37/45/25 38/44/25
f 13/31/26 12/33/26 36/46/26 37/45/26
f 12/33/27 11/35/27 35/47/27 36/46/27
f 11/35/28 10/37/28 34/48/28 35/47/28
f 10/37/29 9/13/29 33/14/29 34/48/29
f 8/49/30 21/50/30 56/16/30 6/15/30
f 21/50/31 22/51/31 55/18/31 56/16/31
f 22/51/32 23/52/32 54/20/32 55/18/32
f 23/52/33 24/53/33 53/22/33 54/20/33
f 24/53/34 25/54/34 52/24/34 53/22/34
f 25/54/35 26/55/35 51/26/35 52/24/35
f 26/55/36 27/56/36 50/28/36 51/26/36
f 27/56/37 28/57/37 49/30/37 50/28/37
f 28/57/38 29/58/38 48/32/38 49/30/38
f 29/58/39 30/59/39 47/34/39 48/32/39
f 30/59/40 31/60/40 46/36/40 47/34/40
f 31/60/41 32/5/41 45/8/41 46/36/41
f 4/11/42 44/38/42 21/61/42 8/62/42
f 44/38/43 43/39/43 22/63/43 21/61/43
f 43/39/44 42/40/44 23/64/44 22/63/44
f 42/40/45 41/41/45 24/65/45 23/64/45
f 41/41/46 40/42/46 25/66/46 24/65/46
f 40/42/47 39/43/47 26/67/47 25/66/47
f 39/43/48 38/44/48 27/68/48 26/67/48
f 38/44/49 37/45/49 28/69/49 27/68/49
f 37/45/50 36/46/50 29/70/50 28/69/50
f 36/46/51 35/47/51 30/71/51 29/70/51
f 35/47/52 34/48/52 31/72/52 30/71/52
f 57/1/1 61/2/1 63/3/1 59/4/1
f 89/14/53 59/4/53 63/73/53 88/74/53
f 88/5/54 63/6/54 61/7/54 101/8/54
f 62/9/3 58/10/3 60/11/3 64/12/3
f 65/13/55 57/1/55 59/4/55 89/14/55
f 62/15/6 112/16/6 76/17/6 58/10/6
f 112/16/7 111/18/7 75/19/7 76/17/7
f 111/18/8 110/20/8 74/21/8 75/19/8
f 110/20/9 109/22/9 73/23/9 74/21/9
f 109/22/10 108/24/10 72/25/10 73/23/10
f 108/24/56 107/26/56 71/27/56 72/25/56
f 107/26/57 106/28/57 70/29/57 71/27/57
f 106/28/58 105/30/58 69/31/58 70/29/58
f 105/30/59 104/32/59 68/33/59 69/31/59
f 104/32/60 103/34/60 67/35/60 68/33/60
f 103/34/61 102/36/61 66/37/61 67/35/61
f 58/10/18 76/17/18 100/38/18 60/11/18
f 76/17/19 75/19/19 99/39/19 100/38/19
f 75/19/20 74/21/20 98/40/20 99/39/20
f 74/21/21 73/23/21 97/41/21 98/40/21
f 73/23/22 72/25/22 96/42/22 97/41/22
f 72/25/23 71/27/23 95/43/23 96/42/23
f 71/27/24 70/29/24 94/44/24 95/43/24
f 70/29/62 69/31/62 93/45/62 94/44/62
f 69/31/63 68/33/63 92/46/63 93/45/63
f 68/33/64 67/35/64 91/47/64 92/46/64
f 67/35/65 66/37/65 90/48/65 91/47/65
f 66/37/66 65/13/66 89/14/66 90/48/66
f 64/49/30 77/50/30 112/16/30 62/15/30
f 77/50/31 78/51/31 111/18/31 112/16/31
f 78/51/32 79/52/32 110/20/32 111/18/32
f 79/52/33 80/53/33 109/22/33 110/20/33
f 80/53/34 81/54/34 108/24/34 109/22/34
f 81/54/35 82/55/35 107/26/35 108/24/35
f 82/55/36 83/56/36 106/28/36 107/26/36
f 83/56/67 84/57/67 105/30/67 106/28/67
f 84/57/68 85/58/68 104/32/68 105/30/68
f 85/58/69 86/59/69 103/34/69 104/32/69
f 86/59/70 87/60/70 102/36/70 103/34/70
f 87/60/71 88/5/71 101/8/71 102/36/71
f 60/11/42 100/38/42 77/61/42 64/62/42
f 100/38/43 99/39/43 78/63/43 77/61/43
f 99/39/44 98/40/44 79/64/44 78/63/44
f 98/40/45 97/41/45 80/65/45 79/64/45
f 97/41/46 96/42/46 81/66/46 80/65/46
f 96/42/72 95/43/72 82/67/72 81/66/72
f 95/43/73 94/44/73 83/68/73 82/67/73
f 94/44/74 93/45/74 84/69/74 83/68/74
f 93/45/75 92/46/75 85/70/75 84/69/75
f 92/46/76 91/47/76 86/71/76 85/70/76
f 91/47/77 90/48/77 87/72/77 86/71/77
f 90/48/78 89/14/78 88/74/78 87/72/78
f 118/75/1 124/76/1 61/2/1 57/1/1
f 130/77/79 101/8/79 61/7/79 124/78/79
f 136/79/80 118/75/80 57/1/80 65/13/80
f 142/80/81 102/36/81 101/8/81 130/77/81
f 148/81/82 136/79/82 65/13/82 66/37/82
f 148/81/83 66/37/83 102/36/83 142/80/83
f 34/48/84 143/82/84 137/83/84 31/60/84
f 143/82/85 144/84/85 138/85/85 137/83/85
f 144/84/86 145/86/86 139/87/86 138/85/86
f 145/86/3 146/88/3 140/89/3 139/87/3
f 146/88/87 147/90/87 141/91/87 140/89/87
f 147/90/88 148/81/88 142/80/88 141/91/88
f 34/48/89 33/14/89 131/92/89 143/82/89
f 143/82/90 131/92/90 132/93/90 144/84/90
f 144/84/91 132/93/91 133/94/91 145/86/91
f 145/86/92 133/94/92 134/95/92 146/88/92
f 146/88/93 134/95/93 135/96/93 147/90/93
f 147/90/94 135/96/94 136/79/94 148/81/94
f 31/60/95 137/83/95 125/97/95 32/5/95
f 137/83/96 138/85/96 126/98/96 125/97/96
f 138/85/97 139/87/97 127/99/97 126/98/97
f 139/87/98 140/89/98 128/100/98 127/99/98
f 140/89/99 141/91/99 129/101/99 128/100/99
f 141/91/100 142/80/100 130/77/100 129/101/100
f 33/14/101 3/4/101 113/102/101 131/92/101
f 131/92/102 113/102/102 114/103/102 132/93/102
f 132/93/103 114/103/103 115/104/103 133/94/103
f 133/94/104 115/104/104 116/105/104 134/95/104
f 134/95/105 116/105/105 117/106/105 135/96/105
f 135/96/106 117/106/106 118/75/106 136/79/106
f 32/5/107 125/97/107 119/107/107 7/3/107
f 125/97/108 126/98/108 120/108/108 119/107/108
f 126/98/109 127/99/109 121/109/109 120/108/109
f 127/99/110 128/100/110 122/110/110 121/109/110
f 128/100/111 129/101/111 123/111/111 122/110/111
f 129/101/112 130/77/112 124/78/112 123/111/112
f 3/4/1 7/3/1 119/112/1 113/102/1
f 113/102/1 119/112/1 120/113/1 114/103/1
f 114/103/1 120/113/1 121/114/1 115/104/1
f 115/104/1 121/114/1 122/115/1 116/105/1
f 116/105/1 122/115/1 123/116/1 117/106/1
f 117/106/1 123/116/1 124/76/1 118/75/1
